<?xml version="1.0" standalone="no"?>
<!DOCTYPE svg PUBLIC "-//W3C//DTD SVG 20010904//EN"
 "http://www.w3.org/TR/2001/REC-SVG-20010904/DTD/svg10.dtd">
<svg version="1.0" xmlns="http://www.w3.org/2000/svg"
 width="700.000000pt" height="700.000000pt" viewBox="0 0 700.000000 700.000000"
 preserveAspectRatio="xMidYMid meet">
<metadata>
Created by potrace 1.11, written by Peter Selinger 2001-2013
</metadata>
<g transform="translate(0.000000,700.000000) scale(0.100000,-0.100000)"
fill="#000000" stroke="none">
<path d="M4040 6678 c-187 -28 -359 -138 -466 -299 -37 -56 -93 -173 -93 -194
0 -3 -2 -18 -6 -35 -7 -31 -6 -30 -120 -49 -33 -6 -73 -13 -90 -16 -48 -8
-218 -36 -245 -40 -14 -2 -119 -20 -235 -41 -115 -20 -230 -39 -255 -43 -43
-7 -44 -8 -15 -14 17 -3 50 -9 75 -12 25 -4 56 -8 70 -10 14 -2 63 -9 110 -15
47 -6 97 -13 111 -15 14 -3 41 -7 60 -9 19 -3 50 -7 69 -10 19 -3 134 -19 254
-36 121 -16 220 -31 221 -33 1 -1 7 -18 14 -37 50 -136 138 -249 256 -329 270
-183 616 -159 850 61 146 136 216 297 218 498 0 117 -17 194 -66 299 -126 267
-421 423 -717 379z"/>
<path d="M3625 5239 c-22 -4 -56 -10 -75 -14 -179 -31 -474 -148 -648 -257
-322 -201 -527 -468 -559 -731 -10 -77 -9 -393 0 -467 29 -224 69 -328 182
-480 77 -103 109 -171 141 -300 20 -80 23 -116 21 -221 -3 -139 -2 -138 -130
-374 -23 -44 -67 -125 -96 -180 -71 -132 -118 -218 -140 -258 -10 -18 -46 -86
-82 -152 l-63 -120 -2 -183 c0 -100 3 -179 7 -175 6 7 165 260 329 523 26 41
91 146 146 233 54 87 120 192 146 235 26 42 50 82 55 87 8 10 537 853 578 921
11 19 119 191 240 384 121 193 307 489 413 658 106 169 197 325 203 347 6 22
9 73 7 113 -11 167 -159 351 -324 402 -49 15 -90 19 -186 18 -68 -1 -141 -5
-163 -9z"/>
</g>
</svg>
