<?xml version="1.0" encoding="utf-8"?>
<!-- Generator: Adobe Illustrator 24.0.1, SVG Export Plug-In . SVG Version: 6.00 Build 0)  -->
<svg version="1.1" id="Layer_3" xmlns="http://www.w3.org/2000/svg" xmlns:xlink="http://www.w3.org/1999/xlink" x="0px" y="0px"
	 viewBox="0 0 825.3 977.93" style="enable-background:new 0 0 825.3 977.93;" xml:space="preserve">
<style type="text/css">
	.st0{fill:#EC2222;}
</style>
<g>
	<path class="st0" d="M483.13,104.46l52.11,84.78c1.25,0.52,2.49,1.04,3.73,1.57c38.69,16.53,73.46,40.23,103.36,70.42
		c29.93,30.24,53.43,65.46,69.85,104.66c17,40.6,25.62,83.78,25.62,128.32c0,44.55-8.62,87.73-25.62,128.33
		c-16.42,39.2-39.92,74.41-69.85,104.66c-29.9,30.19-64.67,53.89-103.36,70.42c-5.21,2.23-10.47,4.31-15.77,6.25l-50.3,81.84
		c187.98-29.28,331.9-193.41,331.9-391.5C804.8,299.73,666.07,137.99,483.13,104.46z"/>
	<polygon class="st0" points="701.31,486.76 412.65,956.43 123.99,486.76 195.7,370.09 325.43,581.17 367.73,512.34 238,301.26 
		412.05,18.07 412.65,17.09 413.25,18.07 587.3,301.26 457.57,512.34 499.87,581.17 629.6,370.09 	"/>
	<path class="st0" d="M20.5,494.21c0,198.09,143.92,362.22,331.9,391.5l-50.3-81.84c-5.3-1.94-10.56-4.02-15.77-6.25
		c-38.69-16.53-73.46-40.23-103.36-70.42c-29.93-30.25-53.43-65.46-69.85-104.66c-17-40.6-25.62-83.78-25.62-128.33
		c0-44.54,8.62-87.72,25.62-128.32c16.42-39.2,39.92-74.42,69.85-104.66c29.9-30.19,64.67-53.89,103.36-70.42
		c1.24-0.53,2.48-1.05,3.73-1.57l52.11-84.78C159.23,137.99,20.5,299.73,20.5,494.21z"/>
</g>
</svg>
